<?xml version="1.0" encoding="utf-8"?>

<!DOCTYPE svg PUBLIC "-//W3C//DTD SVG 1.1//EN" "http://www.w3.org/Graphics/SVG/1.1/DTD/svg11.dtd">
<!-- Uploaded to: SVG Repo, www.svgrepo.com, Generator: SVG Repo Mixer Tools -->
<svg version="1.1" id="_x32_" xmlns="http://www.w3.org/2000/svg" xmlns:xlink="http://www.w3.org/1999/xlink" 
	 viewBox="0 0 512 512"  xml:space="preserve">
<style type="text/css">
	.st0{fill:#000000;}
</style>
<g>
	<rect x="248.388" y="377.03" class="st0" width="15.224" height="96.144"/>
	<rect x="97.53" y="383.029" class="st0" width="12.422" height="78.432"/>
	<rect x="402.06" y="383.029" class="st0" width="12.422" height="78.432"/>
	<path class="st0" d="M123.815,109.005c-6.486-1.201-13.188-1.876-20.074-1.876C44.365,107.13-2.452,152.682,0.1,224.17
		c2.664,74.405,55.383,120.552,90.247,130.756l-9.837,18.152h46.462l-9.865-18.199c16.053-4.684,35.858-16.934,52.861-36.127
		c-30.791-30.431-56.424-76.161-58.563-135.828C110.455,156.245,114.756,131.138,123.815,109.005z M79.709,165.372
		c-4.244,2.47-8.098,5.485-11.495,9.008c-7.48,7.76-12.765,17.637-15.636,29.653c-1.224,5.136-6.371,8.304-11.506,7.08
		c-5.124-1.224-8.304-6.377-7.08-11.506c3.534-14.899,10.408-28.081,20.474-38.501c4.632-4.799,9.894-8.905,15.613-12.245
		c4.564-2.659,10.408-1.115,13.074,3.437C85.805,156.862,84.273,162.707,79.709,165.372z"/>
	<path class="st0" d="M511.9,224.17c2.562-71.488-44.265-117.041-103.63-117.041c-6.885,0-13.588,0.674-20.086,1.876
		c9.059,22.133,13.36,47.24,12.411,73.919c-2.128,59.667-27.76,105.397-58.552,135.834c17.009,19.187,36.808,31.432,52.862,36.121
		l-9.866,18.199h46.462l-9.837-18.152C456.528,344.723,509.252,298.582,511.9,224.17z"/>
	<path class="st0" d="M383.037,182.295c3.134-87.628-54.262-143.469-127.032-143.469c-72.781,0-130.166,55.841-127.043,143.469
		c3.265,91.202,67.886,147.775,110.618,160.288l-12.055,22.248h56.95l-12.051-22.248
		C315.164,330.076,379.79,273.509,383.037,182.295z M226.541,110.218c-5.193,3.031-9.917,6.726-14.08,11.043
		c-9.174,9.517-15.648,21.624-19.171,36.356c-1.498,6.291-7.812,10.175-14.103,8.676c-6.291-1.499-10.18-7.818-8.682-14.109
		c4.336-18.261,12.765-34.423,25.096-47.194c5.673-5.879,12.124-10.912,19.136-15.007c5.593-3.26,12.764-1.372,16.025,4.215
		C234.021,99.786,232.134,106.958,226.541,110.218z"/>
</g>
</svg>